# ProBuilder 4.5.2
# https://unity3d.com/unity/features/worldbuilding/probuilder
# 29/09/2021 12:18:45

mtllib ./Cylinder.mtl
o Cylinder

g Cylinder
v -16 14.06 4.1
v -16 14.11 4.1
v -15.69552 14.06 5.630733
v -15.69552 14.11 5.630733
v -12 14.06 8.1
v -12 14.11 8.1
v -10.46927 14.06 7.795518
v -10.46927 14.11 7.795518
v -9.171573 14.06 6.928427
v -9.171573 14.11 6.928427
v -8.304482 14.06 5.630734
v -8.304482 14.11 5.630734
v -8 14.06 4.099999
v -8 14.11 4.099999
v -8.304482 14.06 2.569266
v -8.304482 14.11 2.569266
v -9.171573 14.06 1.271573
v -9.171573 14.11 1.271573
v -10.46927 14.06 0.4044819
v -10.46927 14.11 0.4044819
v -12 14.06 0.0999999
v -12 14.11 0.0999999
v -13.53074 14.06 0.4044821
v -13.53074 14.11 0.4044821
v -14.82843 14.06 1.271572
v -14.82843 14.11 1.271572
v -15.69552 14.06 2.569266
v -15.69552 14.11 2.569266
v -14.82843 14.11 6.928427
v -13.53073 14.11 7.795518
v -12 14.16 8.1
v -10.46927 14.16 7.795518
v -9.171573 14.16 6.928427
v -8.304482 14.16 5.630734
v -8 14.16 4.099999
v -8.304482 14.16 2.569266
v -9.171573 14.16 1.271573
v -10.46927 14.16 0.4044819
v -12 14.16 0.0999999
v -13.53074 14.16 0.4044821
v -14.82843 14.16 1.271572
v -15.69552 14.16 2.569266
v -16 14.16 4.1
v -15.69552 14.16 5.630733
v -14.82843 14.16 6.928427
v -13.53073 14.16 7.795518
v -12 14.21 8.1
v -10.46927 14.21 7.795518
v -9.171573 14.21 6.928427
v -8.304482 14.21 5.630734
v -8 14.21 4.099999
v -8.304482 14.21 2.569266
v -9.171573 14.21 1.271573
v -10.46927 14.21 0.4044819
v -12 14.21 0.0999999
v -13.53074 14.21 0.4044821
v -14.82843 14.21 1.271572
v -15.69552 14.21 2.569266
v -16 14.21 4.1
v -12 14.06 4.1
v -14.82843 14.06 6.928427
v -15.69552 14.21 5.630733
v -13.53073 14.06 7.795518
v -14.82843 14.21 6.928427
v -13.53073 14.21 7.795518
v -12 14.21 4.1

vt 0 0
vt 0 0.5
vt 0.1950903 0
vt 0.1950903 0.5
vt 0.3928475 0
vt 0.3928475 0.5
vt 0.5879378 0
vt 0.5879378 0.5
vt 0.3181897 0
vt 0.3181897 0.5
vt 0.51328 0
vt 0.51328 0.5
vt 0.1802399 0
vt 0.1802399 0.5
vt 0.3753302 0
vt 0.3753302 0.5
vt -0.1950904 0
vt -0.1950904 0.5
vt -0.3753302 0
vt -0.3753302 0.5
vt -0.1802399 0
vt -0.1802399 0.5
vt -0.5132799 0
vt -0.5132799 0.5
vt -0.3181896 0
vt -0.3181896 0.5
vt -0.5879378 0
vt -0.5879378 0.5
vt -0.3928474 0
vt -0.3928474 0.5
vt 0.3928475 1
vt 0.5879378 1
vt 0.3181897 1
vt 0.51328 1
vt 0.1802399 1
vt 0.3753302 1
vt -2.164176E-08 1
vt 0.1950904 1
vt -0.1950904 1
vt -0.3753302 1
vt -0.1802399 1
vt -0.5132799 1
vt -0.3181896 1
vt -0.5879378 1
vt -0.3928474 1
vt 0.3928475 1.5
vt 0.5879378 1.5
vt 0.3181897 1.5
vt 0.51328 1.5
vt 0.1802399 1.5
vt 0.3753302 1.5
vt -2.164176E-08 1.5
vt 0.1950904 1.5
vt -0.1950904 1.5
vt -0.3753302 1.5
vt -0.1802399 1.5
vt -0.5132799 1.5
vt -0.3181896 1.5
vt -0.5879378 1.5
vt -0.3928474 1.5
vt 0.5 0
vt 0.1464466 0.3535534
vt -0.03806025 0.1913417
vt 0.3086583 0.4619398
vt -0.1464466 0.3535534
vt 0.5 0.5
vt -0.3086583 0.4619398
vt -0.5 0
vt -0.5 0.5
vt 0.6913417 0.4619398
vt -0.6913417 0.4619398
vt 0.8535534 0.3535534
vt -0.8535534 0.3535534
vt 0.9619398 0.1913417
vt -0.9619398 0.1913417
vt 1 -4.371139E-08
vt -1 -4.371139E-08
vt 0.9619398 -0.1913417
vt -0.9619398 -0.1913417
vt 0.8535534 -0.3535534
vt -0.8535534 -0.3535534
vt 0.6913418 -0.4619398
vt -0.6913418 -0.4619398
vt 0.5 -0.5
vt -0.5 -0.5
vt 0.3086582 -0.4619397
vt -0.3086582 -0.4619397
vt 0.1464467 -0.3535534
vt -0.1464467 -0.3535534
vt 0.03806022 -0.1913417
vt -0.03806022 -0.1913417

vn -0.4903927 -0.5 0.09754509
vn -0.9807853 0 0.1950902
vn -0.5586081 -0.4 0.1891501
vn -0.9061275 0 0.3753303
vn 0.1950909 0 0.9807852
vn 0.3826836 0 0.9238794
vn 0.7071066 0 0.707107
vn 0.9238796 0 0.3826834
vn 1 0 -9.115855E-08
vn 0.9238795 0 -0.3826834
vn 0.7071068 0 -0.7071068
vn 0.3826835 0 -0.9238795
vn -1.519309E-08 0 -1
vn -0.3826836 0 -0.9238794
vn -0.7071068 0 -0.7071068
vn -0.9238796 0 -0.3826832
vn -0.9807854 0 -0.1950895
vn -0.6935198 0 0.6935201
vn -0.3753304 0 0.9061275
vn -0.1950908 0 0.9807852
vn 0 -1 0
vn -0.6538569 0.3333333 0.1300601
vn -0.4437018 -0.4 0.3885221
vn -0.5287449 0.4 0.2612462
vn -0.2612462 -0.4 0.528745
vn -0.388522 0.4 0.443702
vn -0.1300605 -0.3333333 0.6538568
vn -0.1891503 0.4 0.558608
vn 0 1 0
vn -0.09754539 0.5 0.4903926

usemtl ProBuilderDefault
f 5/66/21 60/61/21 7/70/21
f 7/70/21 60/61/21 9/72/21
f 9/72/21 60/61/21 11/74/21
f 11/74/21 60/61/21 13/76/21
f 13/76/21 60/61/21 15/78/21
f 15/78/21 60/61/21 17/80/21
f 17/80/21 60/61/21 19/82/21
f 19/82/21 60/61/21 21/84/21
f 21/84/21 60/61/21 23/86/21
f 23/86/21 60/61/21 25/88/21
f 25/88/21 60/61/21 27/90/21
f 27/90/21 60/61/21 1/1/21
f 48/71/29 66/68/29 47/69/29
f 49/73/29 66/68/29 48/71/29
f 50/75/29 66/68/29 49/73/29
f 51/77/29 66/68/29 50/75/29
f 52/79/29 66/68/29 51/77/29
f 53/81/29 66/68/29 52/79/29
f 54/83/29 66/68/29 53/81/29
f 55/85/29 66/68/29 54/83/29
f 56/87/29 66/68/29 55/85/29
f 57/89/29 66/68/29 56/87/29
f 58/91/29 66/68/29 57/89/29
f 59/1/29 66/68/29 58/91/29
f 47/69/30 66/68/29 65/67/28
f 65/67/28 66/68/29 64/65/26
f 64/65/26 66/68/29 62/63/24
f 62/63/24 66/68/29 59/1/22
f 3/3/3 2/2/2 1/1/1
f 3/3/3 4/4/4 2/2/2
f 1/1/1 60/61/21 3/3/3
f 3/3/3 60/61/21 61/62/23
f 61/62/23 60/61/21 63/64/25
f 63/64/25 60/61/21 5/66/27
f 44/38/4 59/1/22 43/37/2
f 44/38/4 62/63/24 59/1/22
f 4/4/4 43/37/2 2/2/2
f 4/4/4 44/38/4 43/37/2
f 45/36/18 62/63/24 44/38/4
f 45/36/18 64/65/26 62/63/24
f 29/16/18 44/38/4 4/4/4
f 29/16/18 45/36/18 44/38/4
f 61/62/23 4/4/4 3/3/3
f 61/62/23 29/16/18 4/4/4
f 46/34/19 64/65/26 45/36/18
f 46/34/19 65/67/28 64/65/26
f 30/12/19 45/36/18 29/16/18
f 30/12/19 46/34/19 45/36/18
f 63/64/25 29/16/18 61/62/23
f 63/64/25 30/12/19 29/16/18
f 31/32/20 65/67/28 46/34/19
f 31/32/20 47/69/30 65/67/28
f 6/8/20 46/34/19 30/12/19
f 6/8/20 31/32/20 46/34/19
f 5/66/27 30/12/19 63/64/25
f 5/66/27 6/8/20 30/12/19
f 8/8/6 6/6/5 5/5/5
f 5/5/5 7/7/6 8/8/6
f 10/12/7 8/10/6 7/9/6
f 7/9/6 9/11/7 10/12/7
f 12/16/8 10/14/7 9/13/7
f 9/13/7 11/15/8 12/16/8
f 14/4/9 12/2/8 11/1/8
f 11/1/8 13/3/9 14/4/9
f 16/2/10 14/18/9 13/17/9
f 13/17/9 15/1/10 16/2/10
f 18/22/11 16/20/10 15/19/10
f 15/19/10 17/21/11 18/22/11
f 20/26/12 18/24/11 17/23/11
f 17/23/11 19/25/12 20/26/12
f 22/30/13 20/28/12 19/27/12
f 19/27/12 21/29/13 22/30/13
f 24/30/14 22/28/13 21/27/13
f 21/27/13 23/29/14 24/30/14
f 26/26/15 24/24/14 23/23/14
f 23/23/14 25/25/15 26/26/15
f 28/22/16 26/20/15 25/19/15
f 25/19/15 27/21/16 28/22/16
f 2/2/17 28/18/16 27/17/16
f 27/17/16 1/1/17 2/2/17
f 32/32/6 31/31/5 6/6/5
f 6/6/5 8/8/6 32/32/6
f 33/34/7 32/33/6 8/10/6
f 8/10/6 10/12/7 33/34/7
f 34/36/8 33/35/7 10/14/7
f 10/14/7 12/16/8 34/36/8
f 35/38/9 34/37/8 12/2/8
f 12/2/8 14/4/9 35/38/9
f 36/37/10 35/39/9 14/18/9
f 14/18/9 16/2/10 36/37/10
f 37/41/11 36/40/10 16/20/10
f 16/20/10 18/22/11 37/41/11
f 38/43/12 37/42/11 18/24/11
f 18/24/11 20/26/12 38/43/12
f 39/45/13 38/44/12 20/28/12
f 20/28/12 22/30/13 39/45/13
f 40/45/14 39/44/13 22/28/13
f 22/28/13 24/30/14 40/45/14
f 41/43/15 40/42/14 24/24/14
f 24/24/14 26/26/15 41/43/15
f 42/41/16 41/40/15 26/20/15
f 26/20/15 28/22/16 42/41/16
f 43/37/17 42/39/16 28/18/16
f 28/18/16 2/2/17 43/37/17
f 48/47/6 47/46/5 31/31/5
f 31/31/5 32/32/6 48/47/6
f 49/49/7 48/48/6 32/33/6
f 32/33/6 33/34/7 49/49/7
f 50/51/8 49/50/7 33/35/7
f 33/35/7 34/36/8 50/51/8
f 51/53/9 50/52/8 34/37/8
f 34/37/8 35/38/9 51/53/9
f 52/52/10 51/54/9 35/39/9
f 35/39/9 36/37/10 52/52/10
f 53/56/11 52/55/10 36/40/10
f 36/40/10 37/41/11 53/56/11
f 54/58/12 53/57/11 37/42/11
f 37/42/11 38/43/12 54/58/12
f 55/60/13 54/59/12 38/44/12
f 38/44/12 39/45/13 55/60/13
f 56/60/14 55/59/13 39/44/13
f 39/44/13 40/45/14 56/60/14
f 57/58/15 56/57/14 40/42/14
f 40/42/14 41/43/15 57/58/15
f 58/56/16 57/55/15 41/40/15
f 41/40/15 42/41/16 58/56/16
f 59/52/17 58/54/16 42/39/16
f 42/39/16 43/37/17 59/52/17

