# ProBuilder 4.5.2
# https://unity3d.com/unity/features/worldbuilding/probuilder
# 01/10/2021 23:33:37

mtllib ./HalfCylinder.mtl
o HalfCylinder

g Cylinder
v -16 14.11 4.1
v -15.69552 14.06 5.630733
v -15.69552 14.11 5.630733
v -12 14.06 8.1
v -12 14.11 8.1
v -10.46927 14.06 7.795518
v -10.46927 14.11 7.795518
v -9.171573 14.06 6.928427
v -9.171573 14.11 6.928427
v -8.304482 14.06 5.630734
v -8.304482 14.11 5.630734
v -8 14.06 4.099999
v -8 14.11 4.099999
v -8.304482 14.06 2.569266
v -8.304482 14.11 2.569266
v -9.171573 14.06 1.271573
v -9.171573 14.11 1.271573
v -10.46927 14.06 0.4044819
v -10.46927 14.11 0.4044819
v -12 14.06 0.0999999
v -12 14.11 0.0999999
v -15.69552 14.11 2.569266
v -14.82843 14.11 6.928427
v -13.53073 14.11 7.795518
v -12 14.16 8.1
v -10.46927 14.16 7.795518
v -9.171573 14.16 6.928427
v -8.304482 14.16 5.630734
v -8 14.16 4.099999
v -8.304482 14.16 2.569266
v -9.171573 14.16 1.271573
v -10.46927 14.16 0.4044819
v -12 14.16 0.0999999
v -13.53074 14.11 0.4044821
v -14.82843 14.11 1.271572
v -16 14.16 4.1
v -15.69552 14.16 5.630733
v -14.82843 14.16 6.928427
v -13.53073 14.16 7.795518
v -12 14.21 8.1
v -10.46927 14.21 7.795518
v -9.171573 14.21 6.928427
v -8.304482 14.21 5.630734
v -8 14.21 4.099999
v -8.304482 14.21 2.569266
v -9.171573 14.21 1.271573
v -10.46927 14.21 0.4044819
v -12 14.21 0.0999999
v -13.53074 14.16 0.4044821
v -14.82843 14.16 1.271572
v -15.69552 14.16 2.569266
v -14.82843 14.06 6.928427
v -15.69552 14.21 5.630733
v -13.53073 14.06 7.795518
v -14.82843 14.21 6.928427
v -13.53073 14.21 7.795518
v -12 14.06 4.1
v -12 14.21 4.1
v -13.53074 14.06 0.4044821
v -13.53074 14.21 0.4044821
v -14.82843 14.06 1.271572
v -14.82843 14.21 1.271572
v -15.69552 14.06 2.569266
v -16 14.06 4.1
v -15.69552 14.21 2.569266
v -16 14.21 4.1

vt 0 0.5
vt 0.1950903 0
vt 0.1950903 0.5
vt 0.3928475 0
vt 0.3928475 0.5
vt 0.5879378 0
vt 0.5879378 0.5
vt 0.3181897 0
vt 0.3181897 0.5
vt 0.51328 0
vt 0.51328 0.5
vt 0.1802399 0
vt 0.1802399 0.5
vt 0.3753302 0
vt 0.3753302 0.5
vt -2.164176E-08 0
vt -0.1950904 0
vt -0.1950904 0.5
vt -0.3753302 0
vt -0.3753302 0.5
vt -0.1802399 0
vt -0.1802399 0.5
vt -0.5132799 0
vt -0.5132799 0.5
vt -0.3181896 0
vt -0.3181896 0.5
vt -0.5879378 0
vt -0.5879378 0.5
vt -0.3928474 0
vt -0.3928474 0.5
vt 0.3928475 1
vt 0.5879378 1
vt 0.3181897 1
vt 0.51328 1
vt 0.1802399 1
vt 0.3753302 1
vt -2.164176E-08 1
vt 0.1950904 1
vt -0.1950904 1
vt -0.3753302 1
vt -0.1802399 1
vt -0.5132799 1
vt -0.3181896 1
vt -0.5879378 1
vt -0.3928474 1
vt 0.3928475 1.5
vt 0.5879378 1.5
vt 0.3181897 1.5
vt 0.51328 1.5
vt 0.1802399 1.5
vt 0.3753302 1.5
vt -2.164176E-08 1.5
vt 0.1950904 1.5
vt -0.1950904 1.5
vt -0.3753302 1.5
vt -0.1802399 1.5
vt -0.5132799 1.5
vt -0.3181896 1.5
vt -0.5879378 1.5
vt -0.3928474 1.5
vt 0.1464466 0.3535534
vt -0.03806025 0.1913417
vt 0.3086583 0.4619398
vt -0.1464466 0.3535534
vt 0.5 0.5
vt -0.3086583 0.4619398
vt -0.5 0.5
vt 0.5 0
vt 0.6913417 0.4619398
vt -0.5 0
vt -0.6913417 0.4619398
vt 0.8535534 0.3535534
vt -0.8535534 0.3535534
vt 0.9619398 0.1913417
vt -0.9619398 0.1913417
vt 1 -4.371139E-08
vt -1 -4.371139E-08
vt 0.9619398 -0.1913417
vt -0.9619398 -0.1913417
vt 0.8535534 -0.3535534
vt -0.8535534 -0.3535534
vt 0.6913418 -0.4619398
vt -0.6913418 -0.4619398
vt 0.5 -0.5
vt -0.5 -0.5
vt 0.3086582 -0.4619397
vt -0.3086582 -0.4619397
vt 0.1464467 -0.3535534
vt -0.1464467 -0.3535534
vt 0.03806022 -0.1913417
vt -0.03806022 -0.1913417

vn -0.9807854 0 3.67562E-07
vn -0.5586081 -0.4 0.1891501
vn -0.9061275 0 0.3753303
vn 0.1950909 0 0.9807852
vn 0.3826836 0 0.9238794
vn 0.7071066 0 0.707107
vn 0.9238796 0 0.3826834
vn 1 0 -9.115855E-08
vn 0.9238795 0 -0.3826834
vn 0.7071068 0 -0.7071068
vn 0.3826835 0 -0.9238795
vn 0.1950903 0 -0.9807853
vn -0.9061275 0 -0.3753301
vn -0.6935198 0 0.6935201
vn -0.3753304 0 0.9061275
vn -0.1950908 0 0.9807852
vn -0.1950904 0 -0.9807852
vn -0.3753304 0 -0.9061274
vn -0.69352 0 -0.6935201
vn -0.4437018 -0.4 0.3885221
vn -0.5287449 0.4 0.2612462
vn -0.2612462 -0.4 0.528745
vn -0.388522 0.4 0.443702
vn -0.1300605 -0.3333333 0.6538568
vn -0.1891503 0.4 0.558608
vn -0.09754539 0.5 0.4903926
vn 0 -1 0
vn 0 1 0
vn -0.09754518 -0.5 -0.4903926
vn -0.1300603 0.3333333 -0.6538568
vn -0.1891502 -0.4 -0.5586079
vn -0.2612463 0.4 -0.5287448
vn -0.3885221 -0.4 -0.4437019
vn -0.4437019 0.4 -0.3885221
vn -0.5287449 -0.4 -0.2612461
vn -0.5884712 -0.4 -0.03901774
vn -0.5586081 0.4 -0.1891499
vn -0.5884712 0.4 0.03901818

usemtl ProBuilderDefault
f 4/65/27 57/68/27 6/69/27
f 6/69/27 57/68/27 8/72/27
f 8/72/27 57/68/27 10/74/27
f 10/74/27 57/68/27 12/76/27
f 12/76/27 57/68/27 14/78/27
f 14/78/27 57/68/27 16/80/27
f 16/80/27 57/68/27 18/82/27
f 18/82/27 57/68/27 20/84/27
f 41/71/28 58/70/28 40/67/28
f 42/73/28 58/70/28 41/71/28
f 43/75/28 58/70/28 42/73/28
f 44/77/28 58/70/28 43/75/28
f 45/79/28 58/70/28 44/77/28
f 46/81/28 58/70/28 45/79/28
f 47/83/28 58/70/28 46/81/28
f 48/85/28 58/70/28 47/83/28
f 63/90/35 57/68/27 64/16/36
f 61/88/33 57/68/27 63/90/35
f 66/16/38 58/70/28 65/91/37
f 65/91/37 58/70/28 62/89/34
f 62/89/34 58/70/28 60/87/32
f 60/87/32 58/70/28 48/85/30
f 40/67/26 58/70/28 56/66/25
f 56/66/25 58/70/28 55/64/23
f 55/64/23 58/70/28 53/62/21
f 53/62/21 58/70/28 66/16/38
f 2/2/2 1/1/1 64/16/36
f 2/2/2 3/3/3 1/1/1
f 64/16/36 57/68/27 2/2/2
f 2/2/2 57/68/27 52/61/20
f 52/61/20 57/68/27 54/63/22
f 54/63/22 57/68/27 4/65/24
f 37/38/3 66/16/38 36/37/1
f 37/38/3 53/62/21 66/16/38
f 3/3/3 36/37/1 1/1/1
f 3/3/3 37/38/3 36/37/1
f 38/36/14 53/62/21 37/38/3
f 38/36/14 55/64/23 53/62/21
f 23/15/14 37/38/3 3/3/3
f 23/15/14 38/36/14 37/38/3
f 52/61/20 3/3/3 2/2/2
f 52/61/20 23/15/14 3/3/3
f 39/34/15 55/64/23 38/36/14
f 39/34/15 56/66/25 55/64/23
f 24/11/15 38/36/14 23/15/14
f 24/11/15 39/34/15 38/36/14
f 54/63/22 23/15/14 52/61/20
f 54/63/22 24/11/15 23/15/14
f 25/32/16 56/66/25 39/34/15
f 25/32/16 40/67/26 56/66/25
f 5/7/16 39/34/15 24/11/15
f 5/7/16 25/32/16 39/34/15
f 4/65/24 24/11/15 54/63/22
f 4/65/24 5/7/16 24/11/15
f 59/86/31 57/68/27 61/88/33
f 20/84/29 57/68/27 59/86/31
f 36/37/1 65/91/37 51/39/13
f 36/37/1 66/16/38 65/91/37
f 64/16/36 22/18/13 63/90/35
f 64/16/36 1/1/1 22/18/13
f 1/1/1 51/39/13 22/18/13
f 1/1/1 36/37/1 51/39/13
f 51/39/13 62/89/34 50/40/19
f 51/39/13 65/91/37 62/89/34
f 22/18/13 50/40/19 35/20/19
f 22/18/13 51/39/13 50/40/19
f 63/90/35 35/20/19 61/88/33
f 63/90/35 22/18/13 35/20/19
f 50/40/19 60/87/32 49/42/18
f 50/40/19 62/89/34 60/87/32
f 35/20/19 49/42/18 34/24/18
f 35/20/19 50/40/19 49/42/18
f 61/88/33 34/24/18 59/86/31
f 61/88/33 35/20/19 34/24/18
f 49/42/18 48/85/30 33/44/17
f 49/42/18 60/87/32 48/85/30
f 34/24/18 33/44/17 21/28/17
f 34/24/18 49/42/18 33/44/17
f 59/86/31 21/28/17 20/84/29
f 59/86/31 34/24/18 21/28/17
f 7/7/5 5/5/4 4/4/4
f 4/4/4 6/6/5 7/7/5
f 9/11/6 7/9/5 6/8/5
f 6/8/5 8/10/6 9/11/6
f 11/15/7 9/13/6 8/12/6
f 8/12/6 10/14/7 11/15/7
f 13/3/8 11/1/7 10/16/7
f 10/16/7 12/2/8 13/3/8
f 15/1/9 13/18/8 12/17/8
f 12/17/8 14/16/9 15/1/9
f 17/22/10 15/20/9 14/19/9
f 14/19/9 16/21/10 17/22/10
f 19/26/11 17/24/10 16/23/10
f 16/23/10 18/25/11 19/26/11
f 21/30/12 19/28/11 18/27/11
f 18/27/11 20/29/12 21/30/12
f 26/32/5 25/31/4 5/5/4
f 5/5/4 7/7/5 26/32/5
f 27/34/6 26/33/5 7/9/5
f 7/9/5 9/11/6 27/34/6
f 28/36/7 27/35/6 9/13/6
f 9/13/6 11/15/7 28/36/7
f 29/38/8 28/37/7 11/1/7
f 11/1/7 13/3/8 29/38/8
f 30/37/9 29/39/8 13/18/8
f 13/18/8 15/1/9 30/37/9
f 31/41/10 30/40/9 15/20/9
f 15/20/9 17/22/10 31/41/10
f 32/43/11 31/42/10 17/24/10
f 17/24/10 19/26/11 32/43/11
f 33/45/12 32/44/11 19/28/11
f 19/28/11 21/30/12 33/45/12
f 41/47/5 40/46/4 25/31/4
f 25/31/4 26/32/5 41/47/5
f 42/49/6 41/48/5 26/33/5
f 26/33/5 27/34/6 42/49/6
f 43/51/7 42/50/6 27/35/6
f 27/35/6 28/36/7 43/51/7
f 44/53/8 43/52/7 28/37/7
f 28/37/7 29/38/8 44/53/8
f 45/52/9 44/54/8 29/39/8
f 29/39/8 30/37/9 45/52/9
f 46/56/10 45/55/9 30/40/9
f 30/40/9 31/41/10 46/56/10
f 47/58/11 46/57/10 31/42/10
f 31/42/10 32/43/11 47/58/11
f 48/60/12 47/59/11 32/44/11
f 32/44/11 33/45/12 48/60/12

